<?xml version="1.0" standalone="no"?>
<!DOCTYPE svg PUBLIC "-//W3C//DTD SVG 20010904//EN"
 "http://www.w3.org/TR/2001/REC-SVG-20010904/DTD/svg10.dtd">
<svg version="1.0" xmlns="http://www.w3.org/2000/svg"
 width="262.000000pt" height="194.000000pt" viewBox="0 0 262.000000 194.000000"
 preserveAspectRatio="xMidYMid meet">

<g transform="translate(0.000000,194.000000) scale(0.100000,-0.100000)"
fill="#000000" stroke="none">
<path d="M368 1614 c-57 -30 -58 -40 -58 -434 l0 -360 515 0 515 0 0 30 c0 30
0 30 59 30 l58 0 5 128 c8 189 53 287 170 365 122 80 250 88 401 22 15 -6 17
0 17 69 0 88 -16 128 -60 151 -43 22 -1581 22 -1622 -1z m702 -234 l0 -40
-290 0 -290 0 0 40 0 40 290 0 290 0 0 -40z"/>
<path d="M1740 1363 c-85 -29 -153 -93 -192 -180 -19 -41 -23 -70 -26 -205
l-4 -158 -62 0 -61 0 2 -282 2 -283 451 -3 450 -2 0 284 0 285 -62 3 -63 3 -5
160 c-5 150 -7 164 -33 217 -70 143 -246 214 -397 161z m201 -133 c24 -13 51
-39 70 -67 29 -47 29 -48 29 -195 l0 -148 -192 2 -193 3 -3 125 c-2 71 2 141
8 163 13 46 64 105 105 123 46 20 129 17 176 -6z"/>
<path d="M1806 1190 c-73 -22 -96 -70 -96 -205 l0 -106 136 3 137 3 -2 109
c-2 128 -14 156 -76 186 -45 22 -55 23 -99 10z"/>
<path d="M310 570 c0 -28 7 -64 15 -80 31 -60 28 -60 545 -60 l470 0 0 95 0
95 -515 0 -515 0 0 -50z"/>
</g>
</svg>
